<svg xmlns="http://www.w3.org/2000/svg" viewBox="0 0 1200 630" width="1200" height="630">
  <defs>
    <radialGradient id="og-g1" cx="20%" cy="20%" r="55%">
      <stop offset="0%" stop-color="#E76F2A" stop-opacity=".55"/>
      <stop offset="100%" stop-color="#E76F2A" stop-opacity="0"/>
    </radialGradient>
    <radialGradient id="og-g2" cx="80%" cy="80%" r="55%">
      <stop offset="0%" stop-color="#2BB3B3" stop-opacity=".5"/>
      <stop offset="100%" stop-color="#2BB3B3" stop-opacity="0"/>
    </radialGradient>
    <linearGradient id="og-bg" x1="0" x2="0" y1="0" y2="1">
      <stop offset="0%" stop-color="#FFFFFF"/>
      <stop offset="100%" stop-color="#F6F8FA"/>
    </linearGradient>
  </defs>
  <rect width="1200" height="630" fill="url(#og-bg)"/>
  <rect width="1200" height="630" fill="url(#og-g1)"/>
  <rect width="1200" height="630" fill="url(#og-g2)"/>

  <g transform="translate(80, 80)">
    <g transform="translate(0, 0)">
      <path fill="#0A1F2E" d="M119.8,69.73c-6.05-17.46-23.46-28.35-41.86-26.14L82.73,0l3.13,25.72c25.5,1.44,46.92,19.6,52.48,44.51l-18.54-.49Z"/>
      <path fill="#0A1F2E" d="M95.5,119.65c17.48-6.04,28.39-23.43,26.17-41.8l43.65,4.78-25.75,3.13c-1.41,25.47-19.63,46.86-44.53,52.41l.46-18.51Z"/>
      <path fill="#E76F2A" d="M69.82,45.46c-17.48,6.04-28.39,23.47-26.17,41.8L0,82.52l25.75-3.13c1.44-25.47,19.63-46.86,44.57-52.41l-.49,18.48Z"/>
      <path fill="#E76F2A" d="M45.52,95.38c6.05,17.46,23.5,28.35,41.86,26.14l-4.75,43.6-3.13-25.72c-25.5-1.4-46.92-19.6-52.48-44.47l18.5.46Z"/>
      <polygon fill="#E76F2A" points="102.46 62.81 82.94 107.67 76.82 88.42 57.51 82.31 102.46 62.81"/>
    </g>
    <text x="200" y="105" font-family="Newsreader, Georgia, serif" font-size="64" font-weight="600" fill="#0A1F2E" letter-spacing="-2">Client<tspan fill="#E76F2A">Cove</tspan></text>
    <text x="200" y="155" font-family="Inter Tight, system-ui, sans-serif" font-size="22" font-weight="500" fill="#5A7184" letter-spacing="-0.3">The #1 Client Management Portal</text>
  </g>

  <g transform="translate(80, 320)">
    <text font-family="Newsreader, Georgia, serif" font-size="74" font-weight="500" fill="#0A1F2E" letter-spacing="-3">
      <tspan x="0" dy="0">One branded portal.</tspan>
      <tspan x="0" dy="92" font-style="italic" fill="#E76F2A">Every client.</tspan>
      <tspan x="0" dy="92">All your work.</tspan>
    </text>
  </g>

  <g transform="translate(80, 575)">
    <rect x="0" y="-20" width="280" height="36" rx="18" fill="#FFF1E8"/>
    <text x="140" y="3" text-anchor="middle" font-family="Inter Tight, sans-serif" font-size="14" font-weight="600" fill="#D85F1B" letter-spacing="0.2">Pay once. Own forever.</text>
  </g>
</svg>
